<mxfile host="65bd71144e">
    <diagram id="tSDiBrnAFvZrArxQ2A1r" name="ページ1">
        <mxGraphModel dx="659" dy="510" grid="1" gridSize="10" guides="1" tooltips="1" connect="1" arrows="1" fold="1" page="1" pageScale="1" pageWidth="827" pageHeight="1169" math="0" shadow="0">
            <root>
                <mxCell id="0"/>
                <mxCell id="1" parent="0"/>
                <mxCell id="48" value="&lt;font color=&quot;#000000&quot;&gt;ローカル&lt;/font&gt;" style="rounded=0;whiteSpace=wrap;html=1;fillColor=#f9f7ed;strokeColor=#36393d;align=left;labelPosition=center;verticalLabelPosition=middle;verticalAlign=top;" parent="1" vertex="1">
                    <mxGeometry x="10" y="450" width="370" height="180" as="geometry"/>
                </mxCell>
                <mxCell id="13" value="&lt;b&gt;Google &lt;/b&gt;Cloud Platform" style="fillColor=#eeeeee;strokeColor=#36393d;shadow=0;fontSize=14;align=left;spacing=10;9E9E9E;verticalAlign=top;spacingTop=-4;fontStyle=0;spacingLeft=40;html=1;" parent="1" vertex="1">
                    <mxGeometry x="10" y="60" width="710" height="390" as="geometry"/>
                </mxCell>
                <mxCell id="14" value="" style="shape=mxgraph.gcp2.google_cloud_platform;fillColor=#F6F6F6;strokeColor=none;shadow=0;gradientColor=none;" parent="13" vertex="1">
                    <mxGeometry width="23" height="20" relative="1" as="geometry">
                        <mxPoint x="20" y="10" as="offset"/>
                    </mxGeometry>
                </mxCell>
                <mxCell id="32" style="edgeStyle=none;html=1;exitX=0.825;exitY=0.5;exitDx=0;exitDy=0;exitPerimeter=0;fontColor=#000000;strokeColor=#000000;entryX=0.175;entryY=0.5;entryDx=0;entryDy=0;entryPerimeter=0;startArrow=none;" parent="13" source="33" target="5" edge="1">
                    <mxGeometry relative="1" as="geometry">
                        <mxPoint x="434" y="70.8" as="targetPoint"/>
                    </mxGeometry>
                </mxCell>
                <mxCell id="6" value="Cloud&#10;Functions" style="sketch=0;html=1;fillColor=#5184F3;strokeColor=none;verticalAlign=top;labelPosition=center;verticalLabelPosition=bottom;align=center;spacingTop=-6;fontSize=11;fontStyle=1;fontColor=#999999;shape=mxgraph.gcp2.hexIcon;prIcon=cloud_functions" parent="13" vertex="1">
                    <mxGeometry x="208" y="41.8" width="66" height="58.5" as="geometry"/>
                </mxCell>
                <mxCell id="28" value="&lt;font color=&quot;#000000&quot;&gt;パイプライン&lt;/font&gt;" style="rounded=0;whiteSpace=wrap;html=1;fillColor=#ffe6cc;strokeColor=#d79b00;align=left;labelPosition=center;verticalLabelPosition=middle;verticalAlign=top;" parent="13" vertex="1">
                    <mxGeometry x="285" y="185.38000000000002" width="164" height="110" as="geometry"/>
                </mxCell>
                <mxCell id="15" value="&lt;div&gt;&lt;span&gt;データレイク&lt;/span&gt;&lt;/div&gt;" style="rounded=0;whiteSpace=wrap;html=1;fillColor=#d5e8d4;strokeColor=#82b366;align=left;labelPosition=center;verticalLabelPosition=middle;verticalAlign=top;fontColor=#000000;" parent="13" vertex="1">
                    <mxGeometry x="109" y="141.8" width="130" height="197.15384615384616" as="geometry"/>
                </mxCell>
                <mxCell id="3" value="Cloud&#10;Storage" style="sketch=0;html=1;fillColor=#5184F3;strokeColor=none;verticalAlign=top;labelPosition=center;verticalLabelPosition=bottom;align=center;spacingTop=-6;fontSize=11;fontStyle=1;fontColor=#999999;shape=mxgraph.gcp2.hexIcon;prIcon=cloud_storage" parent="13" vertex="1">
                    <mxGeometry x="141" y="211.13" width="66" height="58.5" as="geometry"/>
                </mxCell>
                <mxCell id="39" style="edgeStyle=none;html=1;exitX=0.175;exitY=0.5;exitDx=0;exitDy=0;exitPerimeter=0;entryX=0.825;entryY=0.5;entryDx=0;entryDy=0;entryPerimeter=0;fontColor=#000000;strokeColor=#000000;startArrow=none;" parent="13" source="40" target="3" edge="1">
                    <mxGeometry relative="1" as="geometry"/>
                </mxCell>
                <mxCell id="4" value="Cloud Data&#10;Fusion" style="sketch=0;html=1;fillColor=#5184F3;strokeColor=none;verticalAlign=top;labelPosition=center;verticalLabelPosition=bottom;align=center;spacingTop=-6;fontSize=11;fontStyle=1;fontColor=#999999;shape=mxgraph.gcp2.hexIcon;prIcon=cloud_data_fusion" parent="13" vertex="1">
                    <mxGeometry x="334" y="211.13000000000002" width="66" height="58.5" as="geometry"/>
                </mxCell>
                <mxCell id="36" style="edgeStyle=none;html=1;exitX=0.5;exitY=0.84;exitDx=0;exitDy=0;exitPerimeter=0;entryX=0.5;entryY=0.16;entryDx=0;entryDy=0;entryPerimeter=0;fontColor=#000000;strokeColor=#000000;startArrow=none;" parent="13" source="37" target="4" edge="1">
                    <mxGeometry relative="1" as="geometry"/>
                </mxCell>
                <mxCell id="33" value="実行" style="text;html=1;strokeColor=none;fillColor=none;align=center;verticalAlign=middle;whiteSpace=wrap;rounded=0;labelBackgroundColor=none;fontColor=#000000;" parent="13" vertex="1">
                    <mxGeometry x="274" y="41.05" width="60" height="60" as="geometry"/>
                </mxCell>
                <mxCell id="34" value="" style="edgeStyle=none;html=1;exitX=0.825;exitY=0.5;exitDx=0;exitDy=0;exitPerimeter=0;fontColor=#000000;strokeColor=#000000;entryX=0.175;entryY=0.5;entryDx=0;entryDy=0;entryPerimeter=0;endArrow=none;" parent="13" source="6" target="33" edge="1">
                    <mxGeometry relative="1" as="geometry">
                        <mxPoint x="328.45000000000005" y="131.05" as="sourcePoint"/>
                        <mxPoint x="437.54999999999995" y="131.05" as="targetPoint"/>
                    </mxGeometry>
                </mxCell>
                <mxCell id="24" value="監視" style="text;html=1;strokeColor=none;fillColor=none;align=center;verticalAlign=middle;whiteSpace=wrap;rounded=0;labelBackgroundColor=none;fontColor=#000000;" parent="13" vertex="1">
                    <mxGeometry x="160" y="88.8" width="60" height="30" as="geometry"/>
                </mxCell>
                <mxCell id="35" value="" style="edgeStyle=none;html=1;exitX=0.25;exitY=0.67;exitDx=0;exitDy=0;exitPerimeter=0;entryX=0.75;entryY=0.33;entryDx=0;entryDy=0;entryPerimeter=0;fontColor=#000000;strokeColor=#000000;dashed=1;endArrow=none;" parent="13" source="6" target="24" edge="1">
                    <mxGeometry relative="1" as="geometry">
                        <mxPoint x="290.5" y="140.99500000000006" as="sourcePoint"/>
                        <mxPoint x="205.5" y="290.4349999999999" as="targetPoint"/>
                    </mxGeometry>
                </mxCell>
                <mxCell id="23" style="edgeStyle=none;html=1;exitX=0.25;exitY=0.67;exitDx=0;exitDy=0;exitPerimeter=0;entryX=0.5;entryY=0.16;entryDx=0;entryDy=0;entryPerimeter=0;fontColor=#000000;strokeColor=#000000;dashed=1;startArrow=none;" parent="13" source="24" target="3" edge="1">
                    <mxGeometry relative="1" as="geometry"/>
                </mxCell>
                <mxCell id="37" value="実行" style="text;html=1;strokeColor=none;fillColor=none;align=center;verticalAlign=middle;whiteSpace=wrap;rounded=0;labelBackgroundColor=none;fontColor=#000000;" parent="13" vertex="1">
                    <mxGeometry x="337" y="125.37999999999998" width="60" height="60" as="geometry"/>
                </mxCell>
                <mxCell id="38" value="" style="edgeStyle=none;html=1;exitX=0.5;exitY=0.84;exitDx=0;exitDy=0;exitPerimeter=0;entryX=0.5;entryY=0.16;entryDx=0;entryDy=0;entryPerimeter=0;fontColor=#000000;strokeColor=#000000;endArrow=none;" parent="13" source="5" target="37" edge="1">
                    <mxGeometry relative="1" as="geometry">
                        <mxPoint x="459" y="150.94" as="sourcePoint"/>
                        <mxPoint x="429" y="280.49000000000007" as="targetPoint"/>
                    </mxGeometry>
                </mxCell>
                <mxCell id="5" value="Cloud&#10;Composer" style="sketch=0;html=1;fillColor=#5184F3;strokeColor=none;verticalAlign=top;labelPosition=center;verticalLabelPosition=bottom;align=center;spacingTop=-6;fontSize=11;fontStyle=1;fontColor=#999999;shape=mxgraph.gcp2.hexIcon;prIcon=cloud_composer" parent="13" vertex="1">
                    <mxGeometry x="334" y="41.8" width="66" height="58.5" as="geometry"/>
                </mxCell>
                <mxCell id="40" value="読み込み&lt;br&gt;加工" style="text;html=1;strokeColor=none;fillColor=none;align=center;verticalAlign=middle;whiteSpace=wrap;rounded=0;labelBackgroundColor=none;fontColor=#000000;" parent="13" vertex="1">
                    <mxGeometry x="229" y="211.13" width="60" height="60" as="geometry"/>
                </mxCell>
                <mxCell id="41" value="" style="edgeStyle=none;html=1;exitX=0.175;exitY=0.5;exitDx=0;exitDy=0;exitPerimeter=0;entryX=0.825;entryY=0.5;entryDx=0;entryDy=0;entryPerimeter=0;fontColor=#000000;strokeColor=#000000;endArrow=none;" parent="13" source="4" target="40" edge="1">
                    <mxGeometry relative="1" as="geometry">
                        <mxPoint x="393.54999999999995" y="300.38000000000005" as="sourcePoint"/>
                        <mxPoint x="210.45000000000005" y="300.37999999999994" as="targetPoint"/>
                    </mxGeometry>
                </mxCell>
                <mxCell id="42" value="&lt;div&gt;&lt;span&gt;&lt;font color=&quot;#000000&quot;&gt;データウェアハウス&lt;/font&gt;&lt;/span&gt;&lt;/div&gt;" style="rounded=0;whiteSpace=wrap;html=1;fillColor=#e1d5e7;strokeColor=#9673a6;align=left;labelPosition=center;verticalLabelPosition=middle;verticalAlign=top;" parent="13" vertex="1">
                    <mxGeometry x="471" y="136.8" width="130" height="197.15384615384616" as="geometry"/>
                </mxCell>
                <mxCell id="8" value="BigQuery" style="sketch=0;html=1;fillColor=#5184F3;strokeColor=none;verticalAlign=top;labelPosition=center;verticalLabelPosition=bottom;align=center;spacingTop=-6;fontSize=11;fontStyle=1;fontColor=#999999;shape=mxgraph.gcp2.hexIcon;prIcon=bigquery" parent="13" vertex="1">
                    <mxGeometry x="498" y="211.13000000000002" width="66" height="58.5" as="geometry"/>
                </mxCell>
                <mxCell id="43" style="edgeStyle=none;html=1;exitX=0.825;exitY=0.5;exitDx=0;exitDy=0;exitPerimeter=0;entryX=0.175;entryY=0.5;entryDx=0;entryDy=0;entryPerimeter=0;fontColor=#000000;strokeColor=#000000;startArrow=none;" parent="13" source="44" target="8" edge="1">
                    <mxGeometry relative="1" as="geometry"/>
                </mxCell>
                <mxCell id="44" value="登録" style="text;html=1;strokeColor=none;fillColor=none;align=center;verticalAlign=middle;whiteSpace=wrap;rounded=0;labelBackgroundColor=none;fontColor=#000000;" parent="13" vertex="1">
                    <mxGeometry x="414" y="210.38" width="60" height="60" as="geometry"/>
                </mxCell>
                <mxCell id="45" value="" style="edgeStyle=none;html=1;exitX=0.825;exitY=0.5;exitDx=0;exitDy=0;exitPerimeter=0;entryX=0.175;entryY=0.5;entryDx=0;entryDy=0;entryPerimeter=0;fontColor=#000000;strokeColor=#000000;endArrow=none;" parent="13" source="4" target="44" edge="1">
                    <mxGeometry relative="1" as="geometry">
                        <mxPoint x="398.45000000000005" y="300.38000000000005" as="sourcePoint"/>
                        <mxPoint x="542.55" y="300.38000000000005" as="targetPoint"/>
                    </mxGeometry>
                </mxCell>
                <mxCell id="55" value="アップロード" style="text;html=1;strokeColor=none;fillColor=none;align=center;verticalAlign=middle;whiteSpace=wrap;rounded=0;labelBackgroundColor=none;fontColor=#000000;" parent="13" vertex="1">
                    <mxGeometry x="70" y="350" width="80" height="30" as="geometry"/>
                </mxCell>
                <mxCell id="54" style="edgeStyle=none;html=1;fontColor=#000000;startArrow=none;startFill=1;strokeColor=#000000;entryX=0.34;entryY=0.83;entryDx=0;entryDy=0;entryPerimeter=0;" parent="13" source="55" target="3" edge="1">
                    <mxGeometry relative="1" as="geometry"/>
                </mxCell>
                <mxCell id="50" style="edgeStyle=none;html=1;entryX=0.13;entryY=0.77;entryDx=0;entryDy=0;entryPerimeter=0;fontColor=#000000;strokeColor=#000000;startArrow=classic;startFill=1;" parent="1" source="47" target="49" edge="1">
                    <mxGeometry relative="1" as="geometry"/>
                </mxCell>
                <mxCell id="47" value="" style="fontColor=#0066CC;verticalAlign=top;verticalLabelPosition=bottom;labelPosition=center;align=center;html=1;outlineConnect=0;fillColor=#CCCCCC;strokeColor=#6881B3;gradientColor=none;gradientDirection=north;strokeWidth=2;shape=mxgraph.networks.pc;labelBackgroundColor=none;" parent="1" vertex="1">
                    <mxGeometry x="59" y="552" width="70" height="50" as="geometry"/>
                </mxCell>
                <mxCell id="49" value="Open Weather Map&lt;br&gt;API" style="ellipse;shape=cloud;whiteSpace=wrap;html=1;labelBackgroundColor=none;fontColor=#000000;fillColor=#CCCCCC;" parent="1" vertex="1">
                    <mxGeometry x="190" y="452" width="160" height="100" as="geometry"/>
                </mxCell>
                <mxCell id="52" value="" style="dashed=0;outlineConnect=0;html=1;align=center;labelPosition=center;verticalLabelPosition=bottom;verticalAlign=top;shape=mxgraph.weblogos.json;labelBackgroundColor=none;fontColor=#000000;fillColor=#CCCCCC;" parent="1" vertex="1">
                    <mxGeometry x="70" y="482" width="50" height="57.9" as="geometry"/>
                </mxCell>
                <mxCell id="56" value="" style="edgeStyle=none;html=1;fontColor=#000000;startArrow=none;startFill=0;strokeColor=#000000;entryX=0.34;entryY=0.83;entryDx=0;entryDy=0;entryPerimeter=0;endArrow=none;" parent="1" source="52" target="55" edge="1">
                    <mxGeometry relative="1" as="geometry">
                        <mxPoint x="114.03627117871065" y="510" as="sourcePoint"/>
                        <mxPoint x="173.44000000000005" y="319.68499999999995" as="targetPoint"/>
                    </mxGeometry>
                </mxCell>
                <mxCell id="57" value="&lt;ol style=&quot;font-size: 10px&quot;&gt;&lt;li&gt;Open Weather APIで各都道府県の現在の天候を取得&lt;/li&gt;&lt;li&gt;天候情報のJSONファイルをCloud Storageにアップロード&lt;/li&gt;&lt;li&gt;Cloud Storageへのアップロードをトリガーにして、Cloud Functionsを起動&lt;/li&gt;&lt;ol&gt;&lt;li&gt;Cloud ComposerのDAGを実行&lt;/li&gt;&lt;li&gt;DAGの中でData Fusionのパイプラインを実行&lt;/li&gt;&lt;ol&gt;&lt;li&gt;Cloud StorageからJSONファイルを読み込み・加工&lt;/li&gt;&lt;li&gt;BiqQueryに登録&lt;/li&gt;&lt;/ol&gt;&lt;/ol&gt;&lt;/ol&gt;" style="text;html=1;strokeColor=none;fillColor=none;align=left;verticalAlign=top;whiteSpace=wrap;rounded=0;labelBackgroundColor=none;fontColor=#000000;" parent="1" vertex="1">
                    <mxGeometry x="400" y="470" width="410" height="160" as="geometry"/>
                </mxCell>
            </root>
        </mxGraphModel>
    </diagram>
</mxfile>